<svg aria-hidden="true" style="position:absolute;width:0;height:0;overflow:hidden" xmlns="http://www.w3.org/2000/svg">
  <defs>
    <symbol id="icon-play" viewBox="0 0 32 32">
      <path fill="#efede8" style="fill:var(--color1, #efede8);stroke:var(--color1, #efede8)" stroke="#efede8" stroke-linejoin="round" stroke-linecap="round" stroke-width="2.971" d="m6.667 4 18.667 12L6.667 28V4z"/>
    </symbol>
    <symbol id="icon-pause" viewBox="0 0 26 32">
      <path fill="none" stroke="#efede8" style="stroke:var(--color1, #efede8)" stroke-linejoin="round" stroke-linecap="round" stroke-width="4.16" d="M2.132 28.8V3.2m21.333 25.6V3.2"/>
    </symbol>
    <symbol id="icon-arrow" viewBox="0 0 19 32">
      <path fill="none" stroke="#efede8" style="stroke:var(--color1, #efede8)" stroke-linejoin="round" stroke-linecap="round" stroke-width="4.8" d="M3.2 3.2 16 16 3.2 28.8"/>
    </symbol>
    <symbol id="icon-next" viewBox="0 0 42 32">
      <path fill="none" stroke="#e6533c" style="stroke:var(--color2, #e6533c)" stroke-linejoin="round" stroke-linecap="round" stroke-width="4.8" d="M23.467 29.333 36.8 16m0 0L23.467 2.667M36.8 16h-32"/>
    </symbol>
    <symbol id="icon-fire" viewBox="0 0 32 32">
      <path fill="#ef8964" style="fill:var(--color3, #ef8964)" d="M16.001 22.291c-.946.72-2.898 2.5-2.898 4.925 0 1.601 1.3 2.904 2.897 2.904s2.897-1.303 2.897-2.904c0-2.297-1.954-4.161-2.895-4.925z"/>
      <path fill="#ef8964" style="fill:var(--color3, #ef8964)" d="M22.789 5.57a.936.936 0 0 0-1.34-.064l-4.412 4.117V1c0-.722-.87-1.261-1.522-.867-.123.075-3.055 1.865-6.017 5.116-3.602 3.953-6.055 8.766-6.055 14.164C3.443 26.354 9.076 32 16 32c-2.631 0-4.772-2.146-4.772-4.784 0-4.262 4.138-6.786 4.314-6.891a.938.938 0 0 1 .996.022c.173.114 4.234 2.838 4.234 6.869C20.772 29.854 18.631 32 16 32c6.924 0 12.557-5.647 12.557-12.587 0-5.241-2.313-9.938-5.767-13.843z"/>
    </symbol>
    <symbol id="icon-running" viewBox="0 0 32 32">
      <path d="M29.647 9.451a1.185 1.185 0 0 0-1.667-.149l-3.282 2.757-1.509-3.739a1.163 1.163 0 0 0-.229-.362 3.215 3.215 0 0 0-1.582-1.617 3.24 3.24 0 0 0-.982-.262c-.073-.038-.139-.088-.222-.114l-5.775-1.61a1.19 1.19 0 0 0-.917.125 1.155 1.155 0 0 0-.719.672l-2.175 5.592a1.188 1.188 0 0 0 .676 1.534 1.187 1.187 0 0 0 1.532-.678l1.837-4.722 2.63.731c-.064.104-.133.201-.185.312l-3.372 7.309c-.049.107-.075.217-.109.328l-4.098 6.871-6.859 2.294a1.751 1.751 0 0 0 2.081 2.819l7.018-2.417c.215-.156.371-.36.489-.58.088-.094.189-.168.256-.284l2.443-4.096 4.337 3.696-4.641 5.23a1.75 1.75 0 1 0 2.622 2.32l5.791-6.524a1.72 1.72 0 0 0 .36-.676c.043-.132.043-.269.054-.406 0-.069.026-.132.021-.196a1.72 1.72 0 0 0-.601-1.274l-3.991-3.403c.288-.274.532-.6.709-.983l2.585-5.599.828 2.206c.035.196.1.388.239.549.125.149.284.248.454.317.017.009.038.01.059.016.107.038.216.075.329.08.133.012.269-.005.405-.043l.005-.002c.036-.009.073-.002.109-.017a1.17 1.17 0 0 0 .466-.34l4.71-3.998c.501-.421.289-1.166-.132-1.667zM23.689 6.602a3.301 3.301 0 1 0 0-6.602 3.301 3.301 0 0 0 0 6.602z"/>
    </symbol>
    <symbol id="icon-running-figure" viewBox="0 0 32 32">
			<path fill="#EFEDE8" style="fill: var( #EFEDE8)" d="M29.647 9.451c-0.419-0.501-1.166-0.567-1.667-0.149l-3.282 2.757-1.509-3.739c-0.054-0.14-0.135-0.258-0.229-0.362-0.308-0.686-0.844-1.275-1.582-1.617-0.32-0.146-0.652-0.224-0.982-0.262-0.073-0.038-0.139-0.088-0.222-0.114l-5.775-1.61c-0.324-0.088-0.65-0.031-0.917 0.125-0.317 0.107-0.589 0.338-0.719 0.672l-2.175 5.592c-0.236 0.608 0.066 1.294 0.676 1.534 0.607 0.236 1.294-0.068 1.532-0.678l1.837-4.722 2.63 0.731c-0.064 0.104-0.133 0.201-0.185 0.312l-3.372 7.309c-0.049 0.107-0.075 0.217-0.109 0.328l-4.098 6.871-6.859 2.294c-0.776 0.58-0.941 1.674-0.367 2.45 0.577 0.778 1.674 0.943 2.448 0.369l7.018-2.417c0.215-0.156 0.371-0.36 0.489-0.58 0.088-0.094 0.189-0.168 0.256-0.284l2.443-4.096 4.337 3.696-4.641 5.23c-0.639 0.721-0.575 1.832 0.149 2.469 0.723 0.643 1.83 0.575 2.473-0.149l5.791-6.524c0.18-0.201 0.288-0.433 0.36-0.676 0.043-0.132 0.043-0.269 0.054-0.406 0-0.069 0.026-0.132 0.021-0.196-0.016-0.478-0.21-0.943-0.601-1.274l-3.991-3.403c0.288-0.274 0.532-0.6 0.709-0.983l2.585-5.599 0.828 2.206c0.035 0.196 0.1 0.388 0.239 0.549 0.125 0.149 0.284 0.248 0.454 0.317 0.017 0.009 0.038 0.010 0.059 0.016 0.107 0.038 0.216 0.075 0.329 0.080 0.133 0.012 0.269-0.005 0.405-0.043 0.004-0.002 0.005-0.002 0.005-0.002 0.036-0.009 0.073-0.002 0.109-0.017 0.192-0.073 0.34-0.196 0.466-0.34l4.71-3.998c0.501-0.421 0.289-1.166-0.132-1.667z">
			</path>
			<path fill="#EFEDE8" style="fill: var(--color1, #EFEDE8)" d="M23.689 6.602c1.823 0 3.301-1.478 3.301-3.301s-1.478-3.301-3.301-3.301c-1.823 0-3.301 1.478-3.301 3.301s1.478 3.301 3.301 3.301z">
			</path>
		</symbol>
    <symbol id="icon-arrow-right" viewBox="0 0 42 32">
			<path fill="none" stroke="#e6533c" style="stroke: var(--color3, #e6533c)" stroke-linejoin="round" stroke-linecap="round" stroke-miterlimit="4" stroke-width="4.8" d="M23.467 29.333l13.333-13.333M36.8 16l-13.333-13.333M36.8 16h-32">
			</path>
		</symbol>
    <symbol id="icon-bubble" viewBox="0 0 32 32">
      <path fill="#ef8964" style="fill:var(--color3, #ef8964)" d="M20.793 16.346c3.778 0 6.84-3.062 6.84-6.84s-3.062-6.84-6.84-6.84-6.84 3.062-6.84 6.84 3.062 6.84 6.84 6.84zM8.476 25.919a4.107 4.107 0 1 0 0-8.215 4.107 4.107 0 0 0 0 8.215zM22.151 29.332a3.413 3.413 0 1 0 0-6.826 3.413 3.413 0 0 0 0 6.826z"/>
    </symbol>
    <symbol id="icon-dumbbell" viewBox="0 0 32 32">
      <path fill="#ef8964" style="fill:var(--color3, #ef8964)" d="M5.2 8H2.8c-.665 0-1.2.535-1.2 1.2v5.2H.4c-.22 0-.4.18-.4.4v2.4c0 .22.18.4.4.4h1.2v5.2c0 .665.535 1.2 1.2 1.2h2.4c.665 0 1.2-.535 1.2-1.2V9.2c0-.665-.535-1.2-1.2-1.2zm26.4 6.4h-1.2V9.2c0-.665-.535-1.2-1.2-1.2h-2.4c-.665 0-1.2.535-1.2 1.2v13.6c0 .665.535 1.2 1.2 1.2h2.4c.665 0 1.2-.535 1.2-1.2v-5.2h1.2c.22 0 .4-.18.4-.4v-2.4c0-.22-.18-.4-.4-.4zm-8.8-9.6h-2.4c-.665 0-1.2.535-1.2 1.2v8.4h-6.4V6c0-.665-.535-1.2-1.2-1.2H9.2C8.535 4.8 8 5.335 8 6v20c0 .665.535 1.2 1.2 1.2h2.4c.665 0 1.2-.535 1.2-1.2v-8.4h6.4V26c0 .665.535 1.2 1.2 1.2h2.4c.665 0 1.2-.535 1.2-1.2V6c0-.665-.535-1.2-1.2-1.2z"/>
    </symbol>
    <symbol id="icon-food" viewBox="0 0 32 32">
      <path fill="#ef8964" style="fill:var(--color3, #ef8964)" d="M24 4a1.332 1.332 0 0 1 1.324 1.177l.009.156v21.333a1.333 1.333 0 0 1-2.657.157l-.009-.156V20h-1.333a1.333 1.333 0 0 1-1.324-1.177l-.009-.156v-8c0-2.947 2-6.667 4-6.667zm-8 0a1.332 1.332 0 0 1 1.324 1.177l.009.156V12a5.333 5.333 0 0 1-4 5.165v9.501a1.336 1.336 0 0 1-2.189 1.022 1.332 1.332 0 0 1-.468-.865l-.009-.156v-9.501a5.331 5.331 0 0 1-3.994-4.89l-.007-.275V5.334a1.336 1.336 0 0 1 2.189-1.021c.261.219.428.528.468.865l.009.156v6.667a2.665 2.665 0 0 0 1.333 2.309V5.334a1.336 1.336 0 0 1 2.189-1.021c.261.219.428.528.468.865l.009.156.001 8.976a2.664 2.664 0 0 0 1.323-2.084l.009-.225V5.334A1.335 1.335 0 0 1 15.998 4z"/>
    </symbol>
    <symbol id="icon-apple" viewBox="0 0 32 32">
      <path fill="#ef8964" style="fill:var(--color3, #ef8964)" d="M19.454 4.758a.794.794 0 0 0 .479-.399.798.798 0 0 0-.672-1.166.798.798 0 0 0-.314.048c-1.501.499-2.435 1.731-2.986 3.051a8.02 8.02 0 0 0-.203.542 6.394 6.394 0 0 0-1.138-1.541 6.39 6.39 0 0 0-4.705-1.872 1.74 1.74 0 0 0-1.694 1.694 6.39 6.39 0 0 0 1.872 4.705l.05.048a6.401 6.401 0 0 0-5.027 5.747l-.01.118a13.6 13.6 0 0 0 1.616 7.597l.576 1.053a.979.979 0 0 0 .051.08l1.6 2.243a4.301 4.301 0 0 0 3.142 1.785 4.297 4.297 0 0 0 3.392-1.244.743.743 0 0 1 .516-.214.72.72 0 0 1 .516.214 4.299 4.299 0 0 0 5.16.698 4.28 4.28 0 0 0 1.374-1.239l1.6-2.242a.625.625 0 0 0 .051-.082l.574-1.053a13.598 13.598 0 0 0 1.616-7.597l-.008-.118a6.386 6.386 0 0 0-2.442-4.533 6.404 6.404 0 0 0-4.99-1.268l-2.651.442c.016-1.09.208-2.315.638-3.349.448-1.08 1.114-1.848 2.013-2.149h.002zm-8.4 9.6a1.955 1.955 0 0 0-1.147.968c-.296.557-.499 1.475-.312 2.974a.8.8 0 0 1-1.587.198c-.213-1.702-.016-2.984.488-3.926a3.551 3.551 0 0 1 2.053-1.733.791.791 0 0 1 .858.235.814.814 0 0 1 .194.581.791.791 0 0 1-.274.548.814.814 0 0 1-.271.155z"/>
    </symbol>
    <symbol id="icon-calendar" viewBox="0 0 32 32">
      <path fill="none" stroke="#efede8" style="stroke:var(--color1, #efede8)" stroke-linejoin="round" stroke-linecap="round" stroke-width="2.667" d="M25.333 5.333H6.666A2.667 2.667 0 0 0 3.999 8v18.667a2.667 2.667 0 0 0 2.667 2.667h18.667A2.667 2.667 0 0 0 28 26.667V8a2.667 2.667 0 0 0-2.667-2.667zM21.333 2.667V8M10.667 2.667V8M4 13.333h24"/>
    </symbol>
    <symbol id="icon-logo" viewBox="0 0 286 32">
			<path fill="#e6533c" style="fill: var(--color3, #e6533c)" d="M80.941 13.714c1.040 0 1.882 0.843 1.882 1.882v0.807c0 1.040-0.843 1.882-1.882 1.882h-2.151c-1.039 0-1.882 0.843-1.882 1.882v5.378c0 1.040-0.843 1.882-1.882 1.882h-2.151c-1.040 0-1.882 0.843-1.882 1.882v0.807c0 1.040-0.843 1.882-1.882 1.882h-5.109c-1.040 0-1.882-0.843-1.882-1.882v-9.95c0-1.040-0.843-1.882-1.882-1.882h-37.647c-1.040 0-1.882 0.843-1.882 1.882v9.95c0 1.040-0.843 1.882-1.882 1.882h-5.109c-1.040 0-1.882-0.843-1.882-1.882v-0.807c0-1.040-0.843-1.882-1.882-1.882h-2.151c-1.040 0-1.882-0.843-1.882-1.882v-5.378c0-1.040-0.843-1.882-1.882-1.882h-2.151c-1.040 0-1.882-0.843-1.882-1.882v-0.807c0-1.040 0.843-1.882 1.882-1.882h2.151c1.040 0 1.882-0.843 1.882-1.882v-5.378c0-1.040 0.843-1.882 1.882-1.882h2.151c1.040 0 1.882-0.843 1.882-1.882v-0.807c0-1.040 0.843-1.882 1.882-1.882h5.109c1.040 0 1.882 0.843 1.882 1.882v9.95c0 1.040 0.843 1.882 1.882 1.882h37.647c1.040 0 1.882-0.843 1.882-1.882v-9.95c0-1.040 0.843-1.882 1.882-1.882h5.109c1.040 0 1.882 0.843 1.882 1.882v0.807c0 1.040 0.843 1.882 1.882 1.882h2.151c1.040 0 1.882 0.843 1.882 1.882v5.378c0 1.040 0.843 1.882 1.882 1.882h2.151z">
			</path>
			<path fill="#efede8" style="fill: var(--color2, #efede8)" d="M97.882 29.873v-26.353h9.412c1.431 0 2.723 0.358 3.878 1.073 1.167 0.715 2.089 1.675 2.767 2.88s1.016 2.529 1.016 3.972c0 1.481-0.351 2.824-1.054 4.028-0.69 1.192-1.619 2.146-2.786 2.861-1.167 0.703-2.441 1.054-3.821 1.054h-4.819v10.485h-4.593zM102.475 14.795h4.329c0.653 0 1.249-0.163 1.788-0.489s0.966-0.765 1.28-1.318c0.326-0.552 0.489-1.167 0.489-1.845 0-0.69-0.163-1.311-0.489-1.864-0.314-0.552-0.74-0.991-1.28-1.318s-1.136-0.489-1.788-0.489h-4.329v7.322z">
			</path>
			<path fill="#efede8" style="fill: var(--color2, #efede8)" d="M125.393 30.362c-1.732 0-3.313-0.446-4.744-1.336-1.418-0.891-2.554-2.083-3.407-3.576-0.841-1.506-1.261-3.169-1.261-4.988 0-1.38 0.245-2.667 0.734-3.859 0.489-1.205 1.161-2.259 2.014-3.162 0.866-0.916 1.87-1.631 3.012-2.146s2.359-0.772 3.652-0.772c1.732 0 3.307 0.445 4.725 1.336 1.431 0.891 2.566 2.089 3.407 3.595 0.853 1.506 1.28 3.175 1.28 5.007 0 1.368-0.245 2.648-0.734 3.84s-1.167 2.246-2.033 3.162c-0.853 0.904-1.851 1.613-2.993 2.127-1.129 0.514-2.347 0.772-3.652 0.772zM125.393 25.769c0.916 0 1.738-0.245 2.466-0.734s1.299-1.136 1.713-1.939c0.427-0.803 0.64-1.681 0.64-2.635 0-0.979-0.219-1.87-0.659-2.673-0.427-0.816-1.010-1.462-1.751-1.939-0.728-0.489-1.531-0.734-2.409-0.734-0.904 0-1.719 0.245-2.447 0.734s-1.305 1.142-1.732 1.958c-0.427 0.816-0.64 1.7-0.64 2.654 0 0.991 0.22 1.889 0.659 2.692s1.023 1.443 1.751 1.92c0.741 0.464 1.544 0.696 2.409 0.696z">
			</path>
			<path fill="#efede8" style="fill: var(--color2, #efede8)" d="M146.566 29.873h-4.555l-6.287-18.824h4.499l4.085 12.179 4.066-12.179h4.536l4.066 12.179 4.085-12.179h4.499l-6.287 18.824h-4.555l-4.085-12.235-4.066 12.235z">
			</path>
			<path fill="#efede8" style="fill: var(--color2, #efede8)" d="M175.907 30.362c-1.732 0-3.313-0.446-4.744-1.336-1.418-0.891-2.554-2.089-3.407-3.595-0.841-1.506-1.261-3.169-1.261-4.988 0-1.368 0.245-2.648 0.734-3.84 0.489-1.205 1.161-2.259 2.014-3.162 0.866-0.916 1.87-1.631 3.012-2.146s2.359-0.772 3.652-0.772c1.468 0 2.811 0.314 4.028 0.941 1.23 0.615 2.271 1.462 3.125 2.541s1.474 2.309 1.864 3.689c0.389 1.38 0.477 2.824 0.264 4.329h-13.76c0.176 0.703 0.464 1.336 0.866 1.901 0.401 0.552 0.91 0.998 1.525 1.336 0.615 0.326 1.311 0.496 2.089 0.508 0.803 0.013 1.531-0.176 2.184-0.565 0.665-0.401 1.217-0.941 1.656-1.619l4.687 1.092c-0.766 1.669-1.908 3.037-3.426 4.104-1.518 1.054-3.219 1.581-5.101 1.581zM171.277 18.579h9.261c-0.138-0.753-0.433-1.431-0.885-2.033-0.439-0.615-0.985-1.104-1.638-1.468s-1.355-0.546-2.108-0.546-1.449 0.182-2.089 0.546c-0.64 0.351-1.186 0.835-1.638 1.449-0.439 0.602-0.741 1.286-0.904 2.052z">
			</path>
			<path fill="#efede8" style="fill: var(--color2, #efede8)" d="M188.269 29.873l-0.019-18.824h4.593l0.019 1.675c0.64-0.678 1.404-1.211 2.296-1.6 0.89-0.402 1.85-0.602 2.88-0.602 0.689 0 1.38 0.1 2.071 0.301l-1.807 4.631c-0.478-0.188-0.954-0.282-1.431-0.282-0.742 0-1.419 0.182-2.033 0.546-0.602 0.351-1.086 0.834-1.449 1.449-0.352 0.602-0.527 1.274-0.527 2.014v10.692h-4.593z">
			</path>
			<path fill="#efede8" style="fill: var(--color2, #efede8)" d="M202.221 29.873v-26.353h9.412c1.431 0 2.722 0.358 3.878 1.073 1.167 0.715 2.089 1.675 2.767 2.88s1.016 2.529 1.016 3.972c0 1.481-0.352 2.824-1.054 4.028-0.691 1.192-1.619 2.146-2.786 2.861-1.167 0.703-2.441 1.054-3.821 1.054h-4.819v10.485h-4.593zM206.814 14.795h4.329c0.651 0 1.248-0.163 1.788-0.489 0.538-0.326 0.966-0.765 1.28-1.318 0.326-0.552 0.489-1.167 0.489-1.845 0-0.69-0.164-1.311-0.489-1.864-0.314-0.552-0.742-0.991-1.28-1.318-0.54-0.326-1.137-0.489-1.788-0.489h-4.329v7.322z">
			</path>
			<path fill="#efede8" style="fill: var(--color2, #efede8)" d="M221.248 22.908v-11.859h4.593v10.654c0 0.74 0.181 1.418 0.546 2.033 0.363 0.602 0.847 1.086 1.449 1.449 0.614 0.351 1.286 0.527 2.014 0.527 0.753 0 1.431-0.176 2.033-0.527 0.6-0.364 1.084-0.847 1.449-1.449 0.363-0.615 0.546-1.293 0.546-2.033v-10.654h4.593l0.019 18.824h-4.595l-0.017-1.713c-0.653 0.678-1.425 1.217-2.315 1.619-0.892 0.389-1.845 0.584-2.861 0.584-1.368 0-2.618-0.333-3.748-0.998-1.128-0.678-2.031-1.575-2.709-2.692-0.666-1.129-0.998-2.384-0.998-3.765z">
			</path>
			<path fill="#efede8" style="fill: var(--color2, #efede8)" d="M242.368 29.873v-28.235h4.593v28.235h-4.593z">
			</path>
			<path fill="#efede8" style="fill: var(--color2, #efede8)" d="M257.039 30.212c-0.979-0.063-1.928-0.257-2.842-0.584-0.904-0.339-1.707-0.797-2.409-1.374-0.704-0.577-1.242-1.267-1.619-2.071l3.878-1.656c0.151 0.251 0.395 0.521 0.734 0.809 0.339 0.276 0.74 0.508 1.205 0.696 0.476 0.188 0.998 0.282 1.562 0.282 0.476 0 0.928-0.063 1.355-0.188 0.439-0.138 0.791-0.345 1.054-0.621 0.275-0.276 0.414-0.634 0.414-1.073 0-0.464-0.164-0.822-0.489-1.073-0.314-0.264-0.715-0.458-1.205-0.584-0.478-0.138-0.941-0.264-1.393-0.376-1.193-0.238-2.304-0.609-3.332-1.111-1.016-0.502-1.839-1.148-2.466-1.939-0.616-0.803-0.922-1.769-0.922-2.899 0-1.242 0.326-2.315 0.979-3.219 0.664-0.904 1.525-1.6 2.579-2.089 1.065-0.489 2.214-0.734 3.445-0.734 1.493 0 2.861 0.314 4.104 0.941 1.254 0.615 2.246 1.487 2.974 2.616l-3.633 2.146c-0.177-0.301-0.422-0.577-0.734-0.828-0.314-0.264-0.672-0.477-1.073-0.64-0.403-0.176-0.823-0.276-1.261-0.301-0.565-0.025-1.080 0.025-1.544 0.151-0.465 0.125-0.841 0.339-1.129 0.64-0.277 0.301-0.414 0.703-0.414 1.205 0 0.477 0.188 0.834 0.565 1.073 0.376 0.226 0.828 0.402 1.355 0.527 0.538 0.125 1.054 0.264 1.544 0.414 1.103 0.364 2.138 0.809 3.106 1.336 0.979 0.527 1.762 1.173 2.353 1.939 0.589 0.766 0.872 1.681 0.847 2.748 0 1.217-0.365 2.284-1.092 3.2-0.728 0.904-1.67 1.594-2.824 2.071-1.143 0.477-2.366 0.665-3.671 0.565z">
			</path>
			<path fill="#efede8" style="fill: var(--color2, #efede8)" d="M275.834 30.362c-1.732 0-3.313-0.446-4.744-1.336-1.419-0.891-2.554-2.089-3.407-3.595-0.841-1.506-1.261-3.169-1.261-4.988 0-1.368 0.245-2.648 0.734-3.84 0.489-1.205 1.16-2.259 2.014-3.162 0.866-0.916 1.869-1.631 3.012-2.146 1.141-0.515 2.359-0.772 3.652-0.772 1.468 0 2.81 0.314 4.028 0.941 1.229 0.615 2.27 1.462 3.125 2.541 0.853 1.079 1.474 2.309 1.864 3.689 0.388 1.38 0.476 2.824 0.264 4.329h-13.76c0.175 0.703 0.463 1.336 0.866 1.901 0.401 0.552 0.909 0.998 1.525 1.336 0.614 0.326 1.31 0.496 2.089 0.508 0.802 0.013 1.53-0.176 2.184-0.565 0.664-0.401 1.216-0.941 1.656-1.619l4.687 1.092c-0.766 1.669-1.909 3.037-3.426 4.104-1.519 1.054-3.219 1.581-5.101 1.581zM271.204 18.579h9.261c-0.139-0.753-0.433-1.431-0.885-2.033-0.44-0.615-0.986-1.104-1.638-1.468-0.653-0.364-1.355-0.546-2.108-0.546s-1.449 0.182-2.089 0.546c-0.64 0.351-1.186 0.835-1.638 1.449-0.44 0.602-0.742 1.286-0.904 2.052z">
			</path>
		</symbol>
    <symbol id="icon-search" viewBox="0 0 18 18">
      <path d="M8.25 14.25C11.5637 14.25 14.25 11.5637 14.25 8.25C14.25 4.93629 11.5637 2.25 8.25 2.25C4.93629 2.25 2.25 4.93629 2.25 8.25C2.25 11.5637 4.93629 14.25 8.25 14.25Z" stroke-width="1.5" stroke-linecap="round" stroke-linejoin="round"/>
      <path d="M15.7498 15.75L12.4873 12.4875" stroke-width="1.5" stroke-linecap="round" stroke-linejoin="round"/>
    </symbol>
    <symbol id="icon-chevron" viewBox="0 0 18 18">
      <path d="M4.5 6.75L9 11.25L13.5 6.75" stroke-width="2" stroke-linecap="round" stroke-linejoin="round"/>
    </symbol>
    <symbol id="icon-arrow-secondary" viewBox="0 0 16 16">
      <g id="arrow">
      <path id="Icon" d="M7.5 14L14 7.5M14 7.5L7.5 1M14 7.5H1" stroke-width="1.3" stroke-linecap="round" stroke-linejoin="round"/>
      </g>
    </symbol>
    <symbol id="icon-user" viewBox="0 0 61 62">
      <path fill="#EFEDE8" fill-opacity="0.2" d="M30.5013 10.3334C33.1977 10.3334 35.7836 11.4221 37.6902 13.3599C39.5969 15.2978 40.668 17.9261 40.668 20.6667C40.668 23.4073 39.5969 26.0356 37.6902 27.9735C35.7836 29.9114 33.1977 31.0001 30.5013 31.0001C27.8049 31.0001 25.219 29.9114 23.3124 27.9735C21.4058 26.0356 20.3346 23.4073 20.3346 20.6667C20.3346 17.9261 21.4058 15.2978 23.3124 13.3599C25.219 11.4221 27.8049 10.3334 30.5013 10.3334ZM30.5013 51.6667C30.5013 51.6667 50.8347 51.6667 50.8347 46.5001C50.8347 40.3001 40.9222 33.5834 30.5013 33.5834C20.0805 33.5834 10.168 40.3001 10.168 46.5001C10.168 51.6667 30.5013 51.6667 30.5013 51.6667Z" />
    </symbol>
    <symbol id="icon-add-foto" viewBox="0 0 24 24">
      <path fill="#E6533C" d="M8.42353 0.427845L11.4416 1.30053C11.7806 1.39857 12.1404 1.39931 12.4798 1.30269L15.6112 0.411303C16.4564 0.170715 17.3556 0.546915 17.7776 1.31768L19.4127 4.30383C19.5809 4.61093 19.8314 4.86505 20.136 5.03762L22.6787 6.47792C23.4497 6.91468 23.8117 7.8301 23.548 8.6761L22.6688 11.4954C22.5556 11.8584 22.555 12.2472 22.6671 12.6106L23.56 15.5054C23.8177 16.3409 23.4661 17.244 22.7113 17.6852L19.817 19.3772C19.5138 19.5544 19.2663 19.8129 19.1023 20.1235L17.7545 22.6768C17.3456 23.4515 16.4564 23.8417 15.6095 23.6181L12.4446 22.7828C12.1273 22.699 11.7937 22.6997 11.4767 22.7846L8.43415 23.6004C7.5676 23.8328 6.6575 23.4213 6.25958 22.6172L4.91893 19.908C4.74213 19.5508 4.45647 19.2588 4.10311 19.0743L1.34775 17.6356C0.561474 17.225 0.168507 16.3213 0.404481 15.4662L1.21086 12.5444C1.29971 12.2224 1.3013 11.8826 1.21547 11.5599L0.376636 8.40538C0.155154 7.57248 0.52762 6.69555 1.2808 6.27662L4.15375 4.67867C4.47542 4.49975 4.73758 4.23045 4.90779 3.90409L6.23165 1.36568C6.64597 0.571256 7.56282 0.178965 8.42353 0.427845Z" />
      <path d="M12.25 7V17" stroke="#EFEDE8" stroke-width="1.5" stroke-linecap="round" stroke-linejoin="round"/>
      <path d="M7 12H17" stroke="#EFEDE8" stroke-width="1.5" stroke-linecap="round" stroke-linejoin="round"/>    
    </symbol>
    <symbol id="icon-warning" width="24" height="24" viewBox="0 0 24 24" fill="none">
      <circle cx="12" cy="12" r="12" fill="#EFA082"/>
      <path d="M12 19V19.01M12 15V5" stroke="#EFEDE8" stroke-width="2" stroke-linecap="round" stroke-linejoin="round"/>
    </symbol>
    <symbol id="icon-menu" viewBox="0 0 32 32">
			<path fill="none" stroke="#e6533c" style="stroke: var(--color3, #e6533c)" stroke-linejoin="round" stroke-linecap="round" stroke-miterlimit="4" stroke-width="2" d="M4 16h16M4 8h24M4 24h24">
			</path>
		</symbol>
  </defs>
</svg>
