<svg aria-hidden="true" style="position:absolute;width:0;height:0;overflow:hidden" xmlns="http://www.w3.org/2000/svg">
  <defs>
    <symbol id="icon-play" viewBox="0 0 32 32">
      <path fill="#efede8" style="fill:var(--color1, #efede8);stroke:var(--color1, #efede8)" stroke="#efede8" stroke-linejoin="round" stroke-linecap="round" stroke-width="2.971" d="m6.667 4 18.667 12L6.667 28V4z"/>
    </symbol>
    <symbol id="icon-pause" viewBox="0 0 26 32">
      <path fill="none" stroke="#efede8" style="stroke:var(--color1, #efede8)" stroke-linejoin="round" stroke-linecap="round" stroke-width="4.16" d="M2.132 28.8V3.2m21.333 25.6V3.2"/>
    </symbol>
    <symbol id="icon-arrow" viewBox="0 0 19 32">
      <path fill="none" stroke="#efede8" style="stroke:var(--color1, #efede8)" stroke-linejoin="round" stroke-linecap="round" stroke-width="4.8" d="M3.2 3.2 16 16 3.2 28.8"/>
    </symbol>
    <symbol id="icon-next" viewBox="0 0 42 32">
      <path fill="none" stroke="#e6533c" style="stroke:var(--color2, #e6533c)" stroke-linejoin="round" stroke-linecap="round" stroke-width="4.8" d="M23.467 29.333 36.8 16m0 0L23.467 2.667M36.8 16h-32"/>
    </symbol>
    <symbol id="icon-fire" viewBox="0 0 32 32">
      <path fill="#ef8964" style="fill:var(--color3, #ef8964)" d="M16.001 22.291c-.946.72-2.898 2.5-2.898 4.925 0 1.601 1.3 2.904 2.897 2.904s2.897-1.303 2.897-2.904c0-2.297-1.954-4.161-2.895-4.925z"/>
      <path fill="#ef8964" style="fill:var(--color3, #ef8964)" d="M22.789 5.57a.936.936 0 0 0-1.34-.064l-4.412 4.117V1c0-.722-.87-1.261-1.522-.867-.123.075-3.055 1.865-6.017 5.116-3.602 3.953-6.055 8.766-6.055 14.164C3.443 26.354 9.076 32 16 32c-2.631 0-4.772-2.146-4.772-4.784 0-4.262 4.138-6.786 4.314-6.891a.938.938 0 0 1 .996.022c.173.114 4.234 2.838 4.234 6.869C20.772 29.854 18.631 32 16 32c6.924 0 12.557-5.647 12.557-12.587 0-5.241-2.313-9.938-5.767-13.843z"/>
    </symbol>
    <symbol id="icon-running" viewBox="0 0 32 32">
      <path fill="#ef8964" style="fill:var(--color3, #ef8964)" d="M29.647 9.451a1.185 1.185 0 0 0-1.667-.149l-3.282 2.757-1.509-3.739a1.163 1.163 0 0 0-.229-.362 3.215 3.215 0 0 0-1.582-1.617 3.24 3.24 0 0 0-.982-.262c-.073-.038-.139-.088-.222-.114l-5.775-1.61a1.19 1.19 0 0 0-.917.125 1.155 1.155 0 0 0-.719.672l-2.175 5.592a1.188 1.188 0 0 0 .676 1.534 1.187 1.187 0 0 0 1.532-.678l1.837-4.722 2.63.731c-.064.104-.133.201-.185.312l-3.372 7.309c-.049.107-.075.217-.109.328l-4.098 6.871-6.859 2.294a1.751 1.751 0 0 0 2.081 2.819l7.018-2.417c.215-.156.371-.36.489-.58.088-.094.189-.168.256-.284l2.443-4.096 4.337 3.696-4.641 5.23a1.75 1.75 0 1 0 2.622 2.32l5.791-6.524a1.72 1.72 0 0 0 .36-.676c.043-.132.043-.269.054-.406 0-.069.026-.132.021-.196a1.72 1.72 0 0 0-.601-1.274l-3.991-3.403c.288-.274.532-.6.709-.983l2.585-5.599.828 2.206c.035.196.1.388.239.549.125.149.284.248.454.317.017.009.038.01.059.016.107.038.216.075.329.08.133.012.269-.005.405-.043l.005-.002c.036-.009.073-.002.109-.017a1.17 1.17 0 0 0 .466-.34l4.71-3.998c.501-.421.289-1.166-.132-1.667zM23.689 6.602a3.301 3.301 0 1 0 0-6.602 3.301 3.301 0 0 0 0 6.602z"/>
    </symbol>
    <symbol id="icon-bubble" viewBox="0 0 32 32">
      <path fill="#ef8964" style="fill:var(--color3, #ef8964)" d="M20.793 16.346c3.778 0 6.84-3.062 6.84-6.84s-3.062-6.84-6.84-6.84-6.84 3.062-6.84 6.84 3.062 6.84 6.84 6.84zM8.476 25.919a4.107 4.107 0 1 0 0-8.215 4.107 4.107 0 0 0 0 8.215zM22.151 29.332a3.413 3.413 0 1 0 0-6.826 3.413 3.413 0 0 0 0 6.826z"/>
    </symbol>
    <symbol id="icon-dumbbell" viewBox="0 0 32 32">
      <path fill="#ef8964" style="fill:var(--color3, #ef8964)" d="M5.2 8H2.8c-.665 0-1.2.535-1.2 1.2v5.2H.4c-.22 0-.4.18-.4.4v2.4c0 .22.18.4.4.4h1.2v5.2c0 .665.535 1.2 1.2 1.2h2.4c.665 0 1.2-.535 1.2-1.2V9.2c0-.665-.535-1.2-1.2-1.2zm26.4 6.4h-1.2V9.2c0-.665-.535-1.2-1.2-1.2h-2.4c-.665 0-1.2.535-1.2 1.2v13.6c0 .665.535 1.2 1.2 1.2h2.4c.665 0 1.2-.535 1.2-1.2v-5.2h1.2c.22 0 .4-.18.4-.4v-2.4c0-.22-.18-.4-.4-.4zm-8.8-9.6h-2.4c-.665 0-1.2.535-1.2 1.2v8.4h-6.4V6c0-.665-.535-1.2-1.2-1.2H9.2C8.535 4.8 8 5.335 8 6v20c0 .665.535 1.2 1.2 1.2h2.4c.665 0 1.2-.535 1.2-1.2v-8.4h6.4V26c0 .665.535 1.2 1.2 1.2h2.4c.665 0 1.2-.535 1.2-1.2V6c0-.665-.535-1.2-1.2-1.2z"/>
    </symbol>
    <symbol id="icon-food" viewBox="0 0 32 32">
      <path fill="#ef8964" style="fill:var(--color3, #ef8964)" d="M24 4a1.332 1.332 0 0 1 1.324 1.177l.009.156v21.333a1.333 1.333 0 0 1-2.657.157l-.009-.156V20h-1.333a1.333 1.333 0 0 1-1.324-1.177l-.009-.156v-8c0-2.947 2-6.667 4-6.667zm-8 0a1.332 1.332 0 0 1 1.324 1.177l.009.156V12a5.333 5.333 0 0 1-4 5.165v9.501a1.336 1.336 0 0 1-2.189 1.022 1.332 1.332 0 0 1-.468-.865l-.009-.156v-9.501a5.331 5.331 0 0 1-3.994-4.89l-.007-.275V5.334a1.336 1.336 0 0 1 2.189-1.021c.261.219.428.528.468.865l.009.156v6.667a2.665 2.665 0 0 0 1.333 2.309V5.334a1.336 1.336 0 0 1 2.189-1.021c.261.219.428.528.468.865l.009.156.001 8.976a2.664 2.664 0 0 0 1.323-2.084l.009-.225V5.334A1.335 1.335 0 0 1 15.998 4z"/>
    </symbol>
    <symbol id="icon-apple" viewBox="0 0 32 32">
      <path fill="#ef8964" style="fill:var(--color3, #ef8964)" d="M19.454 4.758a.794.794 0 0 0 .479-.399.798.798 0 0 0-.672-1.166.798.798 0 0 0-.314.048c-1.501.499-2.435 1.731-2.986 3.051a8.02 8.02 0 0 0-.203.542 6.394 6.394 0 0 0-1.138-1.541 6.39 6.39 0 0 0-4.705-1.872 1.74 1.74 0 0 0-1.694 1.694 6.39 6.39 0 0 0 1.872 4.705l.05.048a6.401 6.401 0 0 0-5.027 5.747l-.01.118a13.6 13.6 0 0 0 1.616 7.597l.576 1.053a.979.979 0 0 0 .051.08l1.6 2.243a4.301 4.301 0 0 0 3.142 1.785 4.297 4.297 0 0 0 3.392-1.244.743.743 0 0 1 .516-.214.72.72 0 0 1 .516.214 4.299 4.299 0 0 0 5.16.698 4.28 4.28 0 0 0 1.374-1.239l1.6-2.242a.625.625 0 0 0 .051-.082l.574-1.053a13.598 13.598 0 0 0 1.616-7.597l-.008-.118a6.386 6.386 0 0 0-2.442-4.533 6.404 6.404 0 0 0-4.99-1.268l-2.651.442c.016-1.09.208-2.315.638-3.349.448-1.08 1.114-1.848 2.013-2.149h.002zm-8.4 9.6a1.955 1.955 0 0 0-1.147.968c-.296.557-.499 1.475-.312 2.974a.8.8 0 0 1-1.587.198c-.213-1.702-.016-2.984.488-3.926a3.551 3.551 0 0 1 2.053-1.733.791.791 0 0 1 .858.235.814.814 0 0 1 .194.581.791.791 0 0 1-.274.548.814.814 0 0 1-.271.155z"/>
    </symbol>
    <symbol id="icon-calendar" viewBox="0 0 32 32">
      <path fill="none" stroke="#efede8" style="stroke:var(--color1, #efede8)" stroke-linejoin="round" stroke-linecap="round" stroke-width="2.667" d="M25.333 5.333H6.666A2.667 2.667 0 0 0 3.999 8v18.667a2.667 2.667 0 0 0 2.667 2.667h18.667A2.667 2.667 0 0 0 28 26.667V8a2.667 2.667 0 0 0-2.667-2.667zM21.333 2.667V8M10.667 2.667V8M4 13.333h24"/>
    </symbol>
    <symbol id="icon-logo" viewBox="0 0 83 32">
      <path fill="#e6533c" style="fill:var(--color2, #e6533c)" d="M80.941 13.714c1.04 0 1.882.843 1.882 1.882v.807c0 1.04-.843 1.882-1.882 1.882H78.79a1.883 1.883 0 0 0-1.882 1.882v5.378c0 1.04-.843 1.882-1.882 1.882h-2.151c-1.04 0-1.882.843-1.882 1.882v.807c0 1.04-.843 1.882-1.882 1.882h-5.109a1.882 1.882 0 0 1-1.882-1.882v-9.95c0-1.04-.843-1.882-1.882-1.882H22.591c-1.04 0-1.882.843-1.882 1.882v9.95c0 1.04-.843 1.882-1.882 1.882h-5.109a1.882 1.882 0 0 1-1.882-1.882v-.807c0-1.04-.843-1.882-1.882-1.882H7.803a1.882 1.882 0 0 1-1.882-1.882v-5.378c0-1.04-.843-1.882-1.882-1.882H1.888a1.882 1.882 0 0 1-1.882-1.882v-.807c0-1.04.843-1.882 1.882-1.882h2.151c1.04 0 1.882-.843 1.882-1.882V6.454c0-1.04.843-1.882 1.882-1.882h2.151c1.04 0 1.882-.843 1.882-1.882v-.807c0-1.04.843-1.882 1.882-1.882h5.109c1.04 0 1.882.843 1.882 1.882v9.95c0 1.04.843 1.882 1.882 1.882h37.647c1.04 0 1.882-.843 1.882-1.882v-9.95c0-1.04.843-1.882 1.882-1.882h5.109c1.04 0 1.882.843 1.882 1.882v.807c0 1.04.843 1.882 1.882 1.882h2.151c1.04 0 1.882.843 1.882 1.882v5.378c0 1.04.843 1.882 1.882 1.882h2.151z"/>
    </symbol>
    <symbol id="icon-search" viewBox="0 0 18 18">
      <path d="M8.25 14.25C11.5637 14.25 14.25 11.5637 14.25 8.25C14.25 4.93629 11.5637 2.25 8.25 2.25C4.93629 2.25 2.25 4.93629 2.25 8.25C2.25 11.5637 4.93629 14.25 8.25 14.25Z" stroke-width="1.5" stroke-linecap="round" stroke-linejoin="round"/>
      <path d="M15.7498 15.75L12.4873 12.4875" stroke-width="1.5" stroke-linecap="round" stroke-linejoin="round"/>
    </symbol>
    <symbol id="icon-chevron" viewBox="0 0 18 18">
      <path d="M4.5 6.75L9 11.25L13.5 6.75" stroke-width="2" stroke-linecap="round" stroke-linejoin="round"/>
    </symbol>
  </defs>
</svg>
