<svg width="36" height="13" viewBox="0 0 36 13" fill="none" xmlns="http://www.w3.org/2000/svg">
<path d="M35.0714 5.57143C35.5843 5.57143 36 5.98716 36 6.5C36 7.01284 35.5843 7.42857 35.0714 7.42857H34.4286C33.8763 7.42857 33.4286 7.87629 33.4286 8.42857V10.1429C33.4286 10.6951 32.9809 11.1429 32.4286 11.1429H31.7857C31.2729 11.1429 30.8571 11.5586 30.8571 12.0714C30.8571 12.5843 30.4414 13 29.9286 13H28C27.4477 13 27 12.5523 27 12V8.42857C27 7.87629 26.5523 7.42857 26 7.42857H10C9.44772 7.42857 9 7.87629 9 8.42857V12C9 12.5523 8.55228 13 8 13H6.07143C5.55859 13 5.14286 12.5843 5.14286 12.0714C5.14286 11.5586 4.72712 11.1429 4.21429 11.1429H3.57143C3.01914 11.1429 2.57143 10.6951 2.57143 10.1429V8.42857C2.57143 7.87629 2.12371 7.42857 1.57143 7.42857H0.928572C0.415736 7.42857 0 7.01284 0 6.5C0 5.98716 0.415736 5.57143 0.928572 5.57143H1.57143C2.12371 5.57143 2.57143 5.12371 2.57143 4.57143V2.85714C2.57143 2.30486 3.01914 1.85714 3.57143 1.85714H4.21429C4.72712 1.85714 5.14286 1.44141 5.14286 0.928571C5.14286 0.415736 5.55859 0 6.07143 0H8C8.55228 0 9 0.447715 9 1V4.57143C9 5.12371 9.44772 5.57143 10 5.57143H26C26.5523 5.57143 27 5.12371 27 4.57143V1C27 0.447716 27.4477 0 28 0H29.9286C30.4414 0 30.8571 0.415736 30.8571 0.928571C30.8571 1.44141 31.2729 1.85714 31.7857 1.85714H32.4286C32.9809 1.85714 33.4286 2.30486 33.4286 2.85714V4.57143C33.4286 5.12371 33.8763 5.57143 34.4286 5.57143H35.0714Z" fill="#E6533C"/>
</svg>
